# Blender 4.0.2
# www.blender.org
mtllib map3.mtl
o Cube
v 1.000000 1.000000 -1.000000
v 1.000000 -1.000000 -1.000000
v 1.000000 1.000000 1.000000
v 1.000000 -1.000000 1.000000
v -1.000000 1.000000 -1.000000
v -1.000000 -1.000000 -1.000000
v -1.000000 1.000000 1.000000
v -1.000000 -1.000000 1.000000
vn -0.0000 1.0000 -0.0000
vn -0.0000 -0.0000 1.0000
vn -1.0000 -0.0000 -0.0000
vn -0.0000 -1.0000 -0.0000
vn 1.0000 -0.0000 -0.0000
vn -0.0000 -0.0000 -1.0000
vt 0.875000 0.500000
vt 0.625000 0.750000
vt 0.625000 0.500000
vt 0.375000 1.000000
vt 0.375000 0.750000
vt 0.625000 0.000000
vt 0.375000 0.250000
vt 0.375000 0.000000
vt 0.375000 0.500000
vt 0.125000 0.750000
vt 0.125000 0.500000
vt 0.625000 0.250000
vt 0.875000 0.750000
vt 0.625000 1.000000
s 0
usemtl Material
f 5/1/1 3/2/1 1/3/1
f 3/2/2 8/4/2 4/5/2
f 7/6/3 6/7/3 8/8/3
f 2/9/4 8/10/4 6/11/4
f 1/3/5 4/5/5 2/9/5
f 5/12/6 2/9/6 6/7/6
f 5/1/1 7/13/1 3/2/1
f 3/2/2 7/14/2 8/4/2
f 7/6/3 5/12/3 6/7/3
f 2/9/4 4/5/4 8/10/4
f 1/3/5 3/2/5 4/5/5
f 5/12/6 1/3/6 2/9/6
o Icosphere
v -7.388322 3.132464 -5.641942
v -6.664715 3.685246 -5.116217
v -7.664710 3.685246 -4.791293
v -8.282748 3.685250 -5.641943
v -7.664710 3.685246 -6.492591
v -6.664715 3.685246 -6.167667
v -7.111934 4.579685 -4.791293
v -8.111929 4.579685 -5.116217
v -8.111929 4.579685 -6.167667
v -7.111934 4.579685 -6.492591
v -6.493896 4.579680 -5.641943
v -7.388322 5.132464 -5.641943
v -7.550777 3.281811 -5.141946
v -6.962999 3.281811 -5.332931
v -7.125453 3.606728 -4.832931
v -6.537674 3.606730 -5.641943
v -6.962999 3.281811 -5.950953
v -7.914052 3.281814 -5.641943
v -8.076511 3.606729 -5.141944
v -7.550777 3.281811 -6.141937
v -8.076511 3.606729 -6.141940
v -7.125453 3.606728 -6.450953
v -6.437264 4.132464 -5.332930
v -6.437264 4.132464 -5.950954
v -7.388322 4.132464 -4.641943
v -6.800536 4.132464 -4.832925
v -8.339379 4.132464 -5.332930
v -7.976108 4.132464 -4.832925
v -7.976108 4.132464 -6.450958
v -8.339379 4.132464 -5.950954
v -6.800536 4.132464 -6.450958
v -7.388322 4.132464 -6.641943
v -6.700132 4.658202 -5.141944
v -7.651191 4.658203 -4.832931
v -8.238970 4.658201 -5.641943
v -7.651191 4.658203 -6.450953
v -6.700132 4.658202 -6.141940
v -7.225866 4.983119 -5.141946
v -6.862592 4.983117 -5.641943
v -7.813644 4.983119 -5.332931
v -7.813644 4.983119 -5.950953
v -7.225866 4.983119 -6.141937
vn 0.1024 -0.9435 0.3151
vn 0.7002 -0.6617 0.2680
vn -0.2680 -0.9435 0.1947
vn -0.2680 -0.9435 -0.1947
vn 0.1024 -0.9435 -0.3151
vn 0.9050 -0.3304 0.2680
vn 0.0247 -0.3304 0.9435
vn -0.8897 -0.3304 0.3151
vn -0.5746 -0.3304 -0.7488
vn 0.5346 -0.3304 -0.7779
vn 0.8026 -0.1256 0.5831
vn -0.3066 -0.1256 0.9435
vn -0.9921 -0.1256 -0.0000
vn -0.3066 -0.1256 -0.9435
vn 0.8026 -0.1256 -0.5831
vn 0.4089 0.6617 0.6284
vn -0.4713 0.6617 0.5831
vn -0.7002 0.6617 -0.2680
vn 0.0385 0.6617 -0.7488
vn 0.7240 0.6617 -0.1947
vn 0.2680 0.9435 -0.1947
vn 0.4911 0.7947 -0.3568
vn 0.4089 0.6617 -0.6284
vn -0.1024 0.9435 -0.3151
vn -0.1876 0.7947 -0.5773
vn -0.4713 0.6617 -0.5831
vn -0.3313 0.9435 -0.0000
vn -0.6071 0.7947 -0.0000
vn -0.7002 0.6617 0.2680
vn -0.1024 0.9435 0.3151
vn -0.1876 0.7947 0.5773
vn 0.0385 0.6617 0.7488
vn 0.2680 0.9435 0.1947
vn 0.4911 0.7947 0.3568
vn 0.7240 0.6617 0.1947
vn 0.8897 0.3304 -0.3151
vn 0.7947 0.1876 -0.5773
vn 0.5746 0.3304 -0.7488
vn -0.0247 0.3304 -0.9435
vn -0.3035 0.1876 -0.9342
vn -0.5346 0.3304 -0.7779
vn -0.9050 0.3304 -0.2680
vn -0.9822 0.1876 -0.0000
vn -0.9050 0.3304 0.2680
vn -0.5346 0.3304 0.7779
vn -0.3035 0.1876 0.9342
vn -0.0247 0.3304 0.9435
vn 0.5746 0.3304 0.7488
vn 0.7947 0.1876 0.5773
vn 0.8897 0.3304 0.3151
vn 0.3066 0.1256 -0.9435
vn 0.3035 -0.1876 -0.9342
vn 0.0247 -0.3304 -0.9435
vn -0.8026 0.1256 -0.5831
vn -0.7947 -0.1876 -0.5773
vn -0.8897 -0.3304 -0.3151
vn -0.8026 0.1256 0.5831
vn -0.7947 -0.1876 0.5773
vn -0.5746 -0.3304 0.7488
vn 0.3066 0.1256 0.9435
vn 0.3035 -0.1876 0.9342
vn 0.5346 -0.3304 0.7779
vn 0.9921 0.1256 -0.0000
vn 0.9822 -0.1876 -0.0000
vn 0.9050 -0.3304 -0.2680
vn 0.4713 -0.6617 -0.5831
vn 0.1876 -0.7947 -0.5773
vn -0.0385 -0.6617 -0.7488
vn -0.4089 -0.6617 -0.6284
vn -0.4911 -0.7947 -0.3568
vn -0.7240 -0.6617 -0.1947
vn -0.7240 -0.6617 0.1947
vn -0.4911 -0.7947 0.3568
vn -0.4089 -0.6617 0.6284
vn 0.7002 -0.6617 -0.2680
vn 0.6071 -0.7947 -0.0000
vn 0.3313 -0.9435 -0.0000
vn -0.0385 -0.6617 0.7488
vn 0.1876 -0.7947 0.5773
vn 0.4713 -0.6617 0.5831
vt 0.181819 0.000000
vt 0.227273 0.078731
vt 0.136365 0.078731
vt 0.272728 0.157461
vt 0.318182 0.078731
vt 0.363637 0.157461
vt 0.909091 0.000000
vt 0.954545 0.078731
vt 0.863636 0.078731
vt 0.727273 0.000000
vt 0.772727 0.078731
vt 0.681818 0.078731
vt 0.545455 0.000000
vt 0.590909 0.078731
vt 0.500000 0.078731
vt 0.318182 0.236191
vt 0.090910 0.157461
vt 0.181819 0.157461
vt 0.136365 0.236191
vt 0.818182 0.157461
vt 0.909091 0.157461
vt 0.863636 0.236191
vt 0.636364 0.157461
vt 0.727273 0.157461
vt 0.681818 0.236191
vt 0.454546 0.157461
vt 0.545455 0.157461
vt 0.500000 0.236191
vt 0.227273 0.236191
vt 0.045455 0.236191
vt 0.772727 0.236191
vt 0.590909 0.236191
vt 0.409092 0.236191
vt 0.181819 0.314921
vt 0.272728 0.314921
vt 0.227273 0.393651
vt 0.000000 0.314921
vt 0.090910 0.314921
vt 0.045455 0.393651
vt 0.727273 0.314921
vt 0.818182 0.314921
vt 0.772727 0.393651
vt 0.545455 0.314921
vt 0.636364 0.314921
vt 0.590909 0.393651
vt 0.363637 0.314921
vt 0.454546 0.314921
vt 0.409092 0.393651
vt 0.500000 0.393651
vt 0.454546 0.472382
vt 0.681818 0.393651
vt 0.636364 0.472382
vt 0.863636 0.393651
vt 0.818182 0.472382
vt 0.909091 0.314921
vt 0.136365 0.393651
vt 0.090910 0.472382
vt 0.318182 0.393651
vt 0.272728 0.472382
vt 0.954545 0.236191
vt 1.000000 0.157461
vt 0.409092 0.078731
vt 0.363637 0.000000
s 0
usemtl None
f 9/15/7 22/16/7 21/17/7
f 10/18/8 22/19/8 24/20/8
f 9/21/9 21/22/9 26/23/9
f 9/24/10 26/25/10 28/26/10
f 9/27/11 28/28/11 25/29/11
f 10/18/12 24/20/12 31/30/12
f 11/31/13 23/32/13 33/33/13
f 12/34/14 27/35/14 35/36/14
f 13/37/15 29/38/15 37/39/15
f 14/40/16 30/41/16 39/42/16
f 10/18/17 31/30/17 34/43/17
f 11/31/18 33/33/18 36/44/18
f 12/34/19 35/36/19 38/45/19
f 13/37/20 37/39/20 40/46/20
f 14/40/21 39/42/21 32/47/21
f 15/48/22 41/49/22 46/50/22
f 16/51/23 42/52/23 48/53/23
f 17/54/24 43/55/24 49/56/24
f 18/57/25 44/58/25 50/59/25
f 19/60/26 45/61/26 47/62/26
f 47/62/27 50/63/27 20/64/27
f 47/62/28 45/61/28 50/63/28
f 45/61/29 18/57/29 50/63/29
f 50/59/30 49/65/30 20/66/30
f 50/59/31 44/58/31 49/65/31
f 44/58/32 17/54/32 49/65/32
f 49/56/33 48/67/33 20/68/33
f 49/56/34 43/55/34 48/67/34
f 43/55/35 16/69/35 48/67/35
f 48/53/36 46/70/36 20/71/36
f 48/53/37 42/52/37 46/70/37
f 42/52/38 15/48/38 46/70/38
f 46/50/39 47/72/39 20/73/39
f 46/50/40 41/49/40 47/72/40
f 41/49/41 19/60/41 47/72/41
f 32/47/42 45/61/42 19/60/42
f 32/47/43 39/42/43 45/61/43
f 39/42/44 18/57/44 45/61/44
f 40/46/45 44/58/45 18/57/45
f 40/46/46 37/39/46 44/58/46
f 37/39/47 17/54/47 44/58/47
f 38/45/48 43/55/48 17/54/48
f 38/45/49 35/36/49 43/55/49
f 35/36/50 16/69/50 43/55/50
f 36/44/51 42/52/51 16/51/51
f 36/44/52 33/33/52 42/52/52
f 33/33/53 15/48/53 42/52/53
f 34/43/54 41/49/54 15/48/54
f 34/43/55 31/30/55 41/49/55
f 31/30/56 19/60/56 41/49/56
f 39/42/57 40/46/57 18/57/57
f 39/42/58 30/41/58 40/46/58
f 30/41/59 13/37/59 40/46/59
f 37/39/60 38/45/60 17/54/60
f 37/39/61 29/38/61 38/45/61
f 29/38/62 12/34/62 38/45/62
f 35/36/63 36/74/63 16/69/63
f 35/36/64 27/35/64 36/74/64
f 27/35/65 11/75/65 36/74/65
f 33/33/66 34/43/66 15/48/66
f 33/33/67 23/32/67 34/43/67
f 23/32/68 10/18/68 34/43/68
f 31/30/69 32/47/69 19/60/69
f 31/30/70 24/20/70 32/47/70
f 24/20/71 14/40/71 32/47/71
f 25/29/72 30/41/72 14/40/72
f 25/29/73 28/28/73 30/41/73
f 28/28/74 13/37/74 30/41/74
f 28/26/75 29/38/75 13/37/75
f 28/26/76 26/25/76 29/38/76
f 26/25/77 12/34/77 29/38/77
f 26/23/78 27/35/78 12/34/78
f 26/23/79 21/22/79 27/35/79
f 21/22/80 11/75/80 27/35/80
f 24/20/81 25/76/81 14/40/81
f 24/20/82 22/19/82 25/76/82
f 22/19/83 9/77/83 25/76/83
f 21/17/84 23/32/84 11/31/84
f 21/17/85 22/16/85 23/32/85
f 22/16/86 10/18/86 23/32/86
o Plane_with_table_Plane
v 0.000000 0.000001 -10.000000
v 0.000000 0.000001 -5.000000
v 20.000000 0.000000 0.000000
v -5.000000 0.000001 -10.000000
v 0.000000 0.000001 -20.000000
v -10.000000 0.000001 -20.000000
v 0.000000 -0.000001 20.000000
v -5.000000 0.000000 0.000000
v -10.000000 0.000000 0.000000
v 20.000000 -0.000001 20.000000
v 0.000000 0.000000 0.000000
v -10.000000 0.000001 -10.000000
v -20.000000 0.000001 -20.000000
v -20.000000 0.000001 -10.000000
v -10.000000 0.000001 -5.000000
v -5.000000 0.000001 -5.000000
v -5.284804 3.000000 -0.000000
v -5.000000 3.000000 -0.231703
v -5.284804 3.000000 -0.231703
v -5.000000 3.000000 -0.000000
v -5.000000 2.900000 -0.231703
v -9.778880 2.900001 -10.000000
v -10.000000 3.000001 -9.999999
v -9.778880 3.000001 -9.999999
v -10.000000 2.900000 -0.000000
v -10.000000 3.000000 -0.231703
v -10.000000 2.900000 -0.231703
v -5.284804 2.900000 -0.000000
v -9.778880 2.900000 -0.000000
v -9.778880 2.900000 -0.231703
v -9.778880 2.900001 -9.838486
v -10.000000 2.900001 -10.000000
v -9.778880 2.900001 -9.574124
v -10.000000 2.900001 -9.838486
v -10.000000 2.900001 -9.574124
v -10.000000 3.000001 -9.838485
v -5.000000 3.000001 -9.838485
v -5.000000 2.900001 -10.000000
v -5.000000 3.000001 -9.999999
v -5.000000 3.000001 -9.574123
v -5.000000 2.900001 -9.838486
v -5.284804 3.000001 -9.838485
v -5.284804 3.000001 -9.999999
v -5.284804 3.000001 -9.574123
v -9.483733 3.000001 -9.574123
v -5.605240 3.000001 -9.838485
v -9.483733 3.000001 -9.838485
v -5.605240 3.000001 -9.574123
v -5.605240 3.000001 -9.999999
v -9.483733 3.000001 -9.999999
v -5.000000 2.900001 -9.574124
v -5.284804 2.900001 -9.838486
v -5.605240 2.900001 -9.574124
v -5.284804 -0.009357 -9.574124
v -5.284804 2.900001 -9.574124
v -5.284804 2.900001 -10.000000
v -5.605240 2.900001 -10.000000
v -5.000000 2.900000 -0.000000
v -5.284804 2.900000 -0.231703
v -5.605240 2.900000 -0.231703
v -9.483733 2.900000 -0.000000
v -5.605240 3.000000 -0.000000
v -9.483733 3.000000 -0.000000
v -5.605240 2.900000 -0.000000
v -5.605240 3.000000 -0.231703
v -9.483733 3.000000 -0.231703
v -10.000000 3.000000 -0.000000
v -9.778880 3.000000 -0.231703
v -9.778880 3.000000 -0.000000
v -9.778880 3.000001 -9.838485
v -10.000000 3.000001 -9.574123
v -9.778880 3.000001 -9.574123
v -9.483733 2.900001 -9.838486
v -5.605240 2.900001 -9.838486
v -9.778880 -0.002144 -9.838486
v -9.483733 2.900001 -10.000000
v -9.483733 2.900000 -0.231703
v -9.483733 2.900000 -0.495715
v -9.483733 2.900001 -9.574124
v -9.778880 0.009659 -0.495715
v -9.778880 2.900000 -0.495715
v -5.605240 2.900000 -0.495715
v -9.778880 3.000000 -0.495715
v -9.483733 3.000000 -0.495715
v -10.000000 3.000000 -0.495715
v -5.605240 3.000000 -0.495715
v -5.284804 3.000000 -0.495715
v -5.284804 2.900000 -0.495715
v -5.284804 -0.000126 -0.231703
v -5.000000 2.900000 -0.495715
v -10.000000 2.900000 -0.495715
v -5.000000 3.000000 -0.495715
v -9.483733 0.009659 -0.231703
v -9.483733 0.009659 -0.495715
v -9.778880 0.009659 -0.231703
v -5.605240 -0.000126 -0.495715
v -5.284804 -0.000126 -0.495715
v -5.605240 -0.000126 -0.231703
v -5.605240 -0.009357 -9.838486
v -5.284804 -0.009357 -9.838486
v -5.605240 -0.009357 -9.574124
v -9.483733 -0.002144 -9.574124
v -9.483733 -0.002144 -9.838486
v -9.778880 -0.002144 -9.574124
v 20.000000 0.000001 -20.000000
v -20.000000 0.000000 0.000000
v -20.000000 -0.000001 20.000000
vn -0.0000 1.0000 -0.0000
vn 1.0000 -0.0000 -0.0000
vn -0.0000 -0.0000 -1.0000
vn -1.0000 -0.0000 -0.0000
vn -0.0000 -0.0000 1.0000
vn -0.0000 -1.0000 -0.0000
vt 0.500000 0.750000
vt 0.500000 0.625000
vt 1.000000 0.500000
vt 0.375000 0.750000
vt 0.500000 1.000000
vt 0.250000 1.000000
vt 0.500000 0.000000
vt 0.375000 0.500000
vt 0.250000 0.500000
vt 1.000000 0.000000
vt 0.500000 0.500000
vt 0.250000 0.750000
vt 0.000000 1.000000
vt 0.000000 0.750000
vt 0.250000 0.625000
vt 0.375000 0.625000
vt 0.367881 0.625000
vt 0.375000 0.626968
vt 0.367881 0.626968
vt 0.253833 0.750000
vt 0.250000 0.626968
vt 0.253833 0.625000
vt 0.253833 0.626968
vt 0.253835 0.747981
vt 0.253835 0.706314
vt 0.250000 0.747981
vt 0.250000 0.706314
vt 0.375000 0.747981
vt 0.375000 0.706314
vt 0.367880 0.747981
vt 0.367881 0.750000
vt 0.367880 0.706314
vt 0.279239 0.706314
vt 0.326213 0.747981
vt 0.279239 0.747981
vt 0.326213 0.706314
vt 0.326213 0.750000
vt 0.279237 0.750000
vt 0.326214 0.626968
vt 0.279238 0.625000
vt 0.326214 0.625000
vt 0.279238 0.626968
vt 0.279238 0.654073
vt 0.253834 0.654073
vt 0.326214 0.654073
vt 0.250000 0.654073
vt 0.367880 0.654073
vt 0.375000 0.654073
vt 1.000000 1.000000
vt 0.000000 0.500000
vt 0.000000 0.000000
s 1
usemtl Default_OBJ
f 51/78/87 52/79/87 53/80/87
f 54/81/87 55/82/87 56/83/87
f 57/84/87 58/85/87 59/86/87
f 60/87/87 61/88/87 57/84/87
f 62/89/87 63/90/87 64/91/87
f 65/92/87 62/89/87 64/91/87
f 52/79/87 54/81/87 66/93/87
f 66/93/87 62/89/87 65/92/87
f 58/85/87 65/92/87 59/86/87
f 61/88/87 66/93/87 58/85/87
f 67/94/87 68/95/87 69/96/87
f 70/93/88 71/95/88 68/95/88
f 72/97/89 73/89/89 74/97/89
f 75/92/90 76/98/90 77/98/90
f 78/94/91 70/93/91 67/94/91
f 79/99/92 77/98/92 80/100/92
f 81/101/92 82/89/92 72/97/92
f 83/102/92 84/103/92 81/101/92
f 84/103/90 73/89/90 82/89/90
f 85/104/90 86/103/90 84/103/90
f 87/105/88 88/81/88 89/81/88
f 90/106/88 91/105/88 87/105/88
f 92/107/87 89/81/87 93/108/87
f 94/109/87 87/105/87 92/107/87
f 95/110/87 96/111/87 97/112/87
f 98/113/87 92/107/87 96/111/87
f 97/112/87 99/114/87 100/115/87
f 96/111/87 93/108/87 99/114/87
f 101/106/92 102/107/92 91/105/92
f 103/113/91 104/109/91 105/109/91
f 91/105/92 106/108/92 88/81/92
f 102/107/92 107/114/92 106/108/92
f 108/93/92 109/96/92 71/95/92
f 78/94/92 110/116/92 109/96/92
f 111/117/91 112/118/91 113/117/91
f 114/118/91 67/94/91 112/118/91
f 88/81/89 93/108/89 89/81/89
f 106/108/89 99/114/89 93/108/89
f 113/117/87 115/116/87 116/119/87
f 112/118/87 69/96/87 115/116/87
f 117/92/87 118/100/87 76/98/87
f 119/99/87 116/119/87 118/100/87
f 75/92/91 119/99/91 117/92/91
f 79/99/91 113/117/91 119/99/91
f 86/103/87 74/97/87 73/89/87
f 120/101/87 100/115/87 74/97/87
f 121/104/87 120/101/87 86/103/87
f 122/102/87 97/112/87 120/101/87
f 103/113/92 123/112/92 124/111/92
f 123/112/89 125/101/89 81/101/89
f 124/111/92 126/115/92 107/114/92
f 123/112/92 72/97/92 126/115/92
f 114/118/92 127/119/92 110/116/92
f 111/117/92 80/100/92 127/119/92
f 107/114/89 100/115/89 99/114/89
f 126/115/89 74/97/89 100/115/89
f 128/120/92 83/102/92 129/110/92
f 128/120/89 130/121/89 131/121/89
f 132/122/92 129/110/92 103/113/92
f 110/116/92 128/120/92 132/122/92
f 133/121/87 95/110/87 122/102/87
f 118/100/87 134/120/87 133/121/87
f 135/123/87 122/102/87 121/104/87
f 135/123/87 118/100/87 133/121/87
f 136/122/87 94/109/87 98/113/87
f 115/116/87 137/124/87 136/122/87
f 134/120/87 98/113/87 95/110/87
f 116/119/87 136/122/87 134/120/87
f 138/124/92 103/113/92 105/109/92
f 110/116/91 139/96/91 109/96/91
f 140/125/92 105/109/92 101/106/92
f 71/95/92 138/124/92 140/125/92
f 131/121/92 85/104/92 83/102/92
f 80/100/92 141/123/92 131/121/92
f 141/123/90 121/104/90 85/104/90
f 77/98/90 135/123/90 141/123/90
f 142/125/88 101/106/88 90/106/88
f 142/125/88 71/95/88 140/125/88
f 137/124/87 90/106/87 94/109/87
f 69/96/87 142/125/87 137/124/87
f 143/119/92 130/121/92 144/120/92
f 80/100/91 143/119/91 127/119/91
f 131/121/90 145/100/90 80/100/90
f 127/119/88 144/120/88 128/120/88
f 139/96/92 146/122/92 147/124/92
f 132/122/90 148/116/90 110/116/90
f 109/96/88 147/124/88 138/124/88
f 138/124/89 146/122/89 132/122/89
f 104/109/92 149/111/92 150/107/92
f 102/107/89 149/111/89 124/111/89
f 105/109/88 150/107/88 102/107/88
f 124/111/90 151/113/90 103/113/90
f 152/110/92 125/101/92 153/112/92
f 81/101/90 154/102/90 83/102/90
f 129/110/88 153/112/88 123/112/88
f 83/102/91 152/110/91 129/110/91
f 52/79/87 61/88/87 53/80/87
f 53/80/87 155/126/87 51/78/87
f 155/126/87 55/82/87 51/78/87
f 56/83/87 62/89/87 54/81/87
f 54/81/87 51/78/87 55/82/87
f 156/127/87 157/128/87 59/86/87
f 157/128/87 57/84/87 59/86/87
f 57/84/87 61/88/87 58/85/87
f 60/87/87 53/80/87 61/88/87
f 62/89/87 56/83/87 63/90/87
f 64/91/87 156/127/87 65/92/87
f 156/127/87 59/86/87 65/92/87
f 52/79/87 51/78/87 54/81/87
f 66/93/87 54/81/87 62/89/87
f 58/85/87 66/93/87 65/92/87
f 61/88/87 52/79/87 66/93/87
f 67/94/87 70/93/87 68/95/87
f 70/93/88 108/93/88 71/95/88
f 72/97/89 82/89/89 73/89/89
f 75/92/90 117/92/90 76/98/90
f 78/94/91 108/93/91 70/93/91
f 79/99/92 75/92/92 77/98/92
f 81/101/92 84/103/92 82/89/92
f 83/102/92 85/104/92 84/103/92
f 84/103/90 86/103/90 73/89/90
f 85/104/90 121/104/90 86/103/90
f 87/105/88 91/105/88 88/81/88
f 90/106/88 101/106/88 91/105/88
f 92/107/87 87/105/87 89/81/87
f 94/109/87 90/106/87 87/105/87
f 95/110/87 98/113/87 96/111/87
f 98/113/87 94/109/87 92/107/87
f 97/112/87 96/111/87 99/114/87
f 96/111/87 92/107/87 93/108/87
f 101/106/92 105/109/92 102/107/92
f 103/113/91 151/113/91 104/109/91
f 91/105/92 102/107/92 106/108/92
f 102/107/92 124/111/92 107/114/92
f 108/93/92 78/94/92 109/96/92
f 78/94/92 114/118/92 110/116/92
f 111/117/91 114/118/91 112/118/91
f 114/118/91 78/94/91 67/94/91
f 88/81/89 106/108/89 93/108/89
f 106/108/89 107/114/89 99/114/89
f 113/117/87 112/118/87 115/116/87
f 112/118/87 67/94/87 69/96/87
f 117/92/87 119/99/87 118/100/87
f 119/99/87 113/117/87 116/119/87
f 75/92/91 79/99/91 119/99/91
f 79/99/91 111/117/91 113/117/91
f 86/103/87 120/101/87 74/97/87
f 120/101/87 97/112/87 100/115/87
f 121/104/87 122/102/87 120/101/87
f 122/102/87 95/110/87 97/112/87
f 103/113/92 129/110/92 123/112/92
f 123/112/89 153/112/89 125/101/89
f 124/111/92 123/112/92 126/115/92
f 123/112/92 81/101/92 72/97/92
f 114/118/92 111/117/92 127/119/92
f 111/117/92 79/99/92 80/100/92
f 107/114/89 126/115/89 100/115/89
f 126/115/89 72/97/89 74/97/89
f 128/120/92 131/121/92 83/102/92
f 128/120/89 144/120/89 130/121/89
f 132/122/92 128/120/92 129/110/92
f 110/116/92 127/119/92 128/120/92
f 133/121/87 134/120/87 95/110/87
f 118/100/87 116/119/87 134/120/87
f 135/123/87 133/121/87 122/102/87
f 135/123/87 76/98/87 118/100/87
f 136/122/87 137/124/87 94/109/87
f 115/116/87 69/96/87 137/124/87
f 134/120/87 136/122/87 98/113/87
f 116/119/87 115/116/87 136/122/87
f 138/124/92 132/122/92 103/113/92
f 110/116/91 148/116/91 139/96/91
f 140/125/92 138/124/92 105/109/92
f 71/95/92 109/96/92 138/124/92
f 131/121/92 141/123/92 85/104/92
f 80/100/92 77/98/92 141/123/92
f 141/123/90 135/123/90 121/104/90
f 77/98/90 76/98/90 135/123/90
f 142/125/88 140/125/88 101/106/88
f 142/125/88 68/95/88 71/95/88
f 137/124/87 142/125/87 90/106/87
f 69/96/87 68/95/87 142/125/87
f 143/119/92 145/100/92 130/121/92
f 80/100/91 145/100/91 143/119/91
f 131/121/90 130/121/90 145/100/90
f 127/119/88 143/119/88 144/120/88
f 139/96/92 148/116/92 146/122/92
f 132/122/90 146/122/90 148/116/90
f 109/96/88 139/96/88 147/124/88
f 138/124/89 147/124/89 146/122/89
f 104/109/92 151/113/92 149/111/92
f 102/107/89 150/107/89 149/111/89
f 105/109/88 104/109/88 150/107/88
f 124/111/90 149/111/90 151/113/90
f 152/110/92 154/102/92 125/101/92
f 81/101/90 125/101/90 154/102/90
f 129/110/88 152/110/88 153/112/88
f 83/102/91 154/102/91 152/110/91
