# Blender v3.1.2 OBJ File: 'map2.blend'
# www.blender.org
mtllib map2.mtl
o Cube
v -19.260000 24.039999 -25.859999
v -19.260000 -22.039999 -25.859999
v -19.260000 24.039999 25.859999
v -19.260000 -22.039999 25.859999
v -23.300001 24.039999 -25.859999
v -23.300001 -22.039999 -25.859999
v -23.300001 24.039999 25.859999
v -23.300001 -22.039999 25.859999
vt 0.875000 0.500000
vt 0.625000 0.750000
vt 0.625000 0.500000
vt 0.375000 1.000000
vt 0.375000 0.750000
vt 0.625000 0.000000
vt 0.375000 0.250000
vt 0.375000 0.000000
vt 0.375000 0.500000
vt 0.125000 0.750000
vt 0.125000 0.500000
vt 0.625000 0.250000
vt 0.875000 0.750000
vt 0.625000 1.000000
vn 0.0000 1.0000 0.0000
vn 0.0000 0.0000 1.0000
vn -1.0000 0.0000 0.0000
vn 0.0000 -1.0000 0.0000
vn 1.0000 0.0000 0.0000
vn 0.0000 0.0000 -1.0000
usemtl Material
s off
f 5/1/1 3/2/1 1/3/1
f 3/2/2 8/4/2 4/5/2
f 7/6/3 6/7/3 8/8/3
f 2/9/4 8/10/4 6/11/4
f 1/3/5 4/5/5 2/9/5
f 5/12/6 2/9/6 6/7/6
f 5/1/1 7/13/1 3/2/1
f 3/2/2 7/14/2 8/4/2
f 7/6/3 5/12/3 6/7/3
f 2/9/4 4/5/4 8/10/4
f 1/3/5 3/2/5 4/5/5
f 5/12/6 1/3/6 2/9/6
o Plane_with_table_Plane
v 0.000000 0.000002 -10.000000
v 0.000000 0.000001 -5.000000
v 20.000000 0.000000 0.000000
v -5.000000 0.000002 -10.000000
v 0.000000 0.000003 -20.000000
v -10.000000 0.000003 -20.000000
v 0.000000 -0.000003 20.000000
v -5.000000 0.000000 0.000000
v -10.000000 0.000000 0.000000
v 20.000000 -0.000003 20.000000
v 0.000000 0.000000 0.000000
v -10.000000 0.000002 -10.000000
v -20.000000 0.000003 -20.000000
v -20.000000 0.000002 -10.000000
v -10.000000 0.000001 -5.000000
v -5.000000 0.000001 -5.000000
v -5.284804 3.000000 0.000000
v -5.000000 3.000000 -0.231703
v -5.284804 3.000000 -0.231703
v -5.000000 3.000000 0.000000
v -5.000000 2.900000 -0.231703
v -9.778880 2.900002 -10.000000
v -10.000000 3.000002 -9.999999
v -9.778880 3.000002 -9.999999
v -10.000000 2.900000 0.000000
v -10.000000 3.000000 -0.231703
v -10.000000 2.900000 -0.231703
v -5.284804 2.900000 0.000000
v -9.778880 2.900000 0.000000
v -9.778880 2.900000 -0.231703
v -9.778880 2.900002 -9.838486
v -10.000000 2.900002 -10.000000
v -9.778880 2.900002 -9.574124
v -10.000000 2.900002 -9.838486
v -10.000000 2.900002 -9.574124
v -10.000000 3.000002 -9.838485
v -5.000000 3.000002 -9.838485
v -5.000000 2.900002 -10.000000
v -5.000000 3.000002 -9.999999
v -5.000000 3.000002 -9.574123
v -5.000000 2.900002 -9.838486
v -5.284804 3.000002 -9.838485
v -5.284804 3.000002 -9.999999
v -5.284804 3.000002 -9.574123
v -9.483733 3.000002 -9.574123
v -5.605240 3.000002 -9.838485
v -9.483733 3.000002 -9.838485
v -5.605240 3.000002 -9.574123
v -5.605240 3.000002 -9.999999
v -9.483733 3.000002 -9.999999
v -5.000000 2.900002 -9.574124
v -5.284804 2.900002 -9.838486
v -5.605240 2.900002 -9.574124
v -5.284804 -0.009356 -9.574124
v -5.284804 2.900002 -9.574124
v -5.284804 2.900002 -10.000000
v -5.605240 2.900002 -10.000000
v -5.000000 2.900000 0.000000
v -5.284804 2.900000 -0.231703
v -5.605240 2.900000 -0.231703
v -9.483733 2.900000 0.000000
v -5.605240 3.000000 0.000000
v -9.483733 3.000000 0.000000
v -5.605240 2.900000 0.000000
v -5.605240 3.000000 -0.231703
v -9.483733 3.000000 -0.231703
v -10.000000 3.000000 0.000000
v -9.778880 3.000000 -0.231703
v -9.778880 3.000000 0.000000
v -9.778880 3.000002 -9.838485
v -10.000000 3.000002 -9.574123
v -9.778880 3.000002 -9.574123
v -9.483733 2.900002 -9.838486
v -5.605240 2.900002 -9.838486
v -9.778880 -0.002143 -9.838486
v -9.483733 2.900002 -10.000000
v -9.483733 2.900000 -0.231703
v -9.483733 2.900000 -0.495715
v -9.483733 2.900002 -9.574124
v -9.778880 0.009659 -0.495715
v -9.778880 2.900000 -0.495715
v -5.605240 2.900000 -0.495715
v -9.778880 3.000000 -0.495715
v -9.483733 3.000000 -0.495715
v -10.000000 3.000000 -0.495715
v -5.605240 3.000000 -0.495715
v -5.284804 3.000000 -0.495715
v -5.284804 2.900000 -0.495715
v -5.284804 -0.000126 -0.231703
v -5.000000 2.900000 -0.495715
v -10.000000 2.900000 -0.495715
v -5.000000 3.000000 -0.495715
v -9.483733 0.009659 -0.231703
v -9.483733 0.009659 -0.495715
v -9.778880 0.009659 -0.231703
v -5.605240 -0.000126 -0.495715
v -5.284804 -0.000126 -0.495715
v -5.605240 -0.000126 -0.231703
v -5.605240 -0.009356 -9.838486
v -5.284804 -0.009356 -9.838486
v -5.605240 -0.009356 -9.574124
v -9.483733 -0.002143 -9.574124
v -9.483733 -0.002143 -9.838486
v -9.778880 -0.002143 -9.574124
v 20.000000 0.000003 -20.000000
v -20.000000 0.000000 0.000000
v -20.000000 -0.000003 20.000000
vt 0.500000 0.750000
vt 0.500000 0.625000
vt 1.000000 0.500000
vt 0.375000 0.750000
vt 0.500000 1.000000
vt 0.250000 1.000000
vt 0.500000 0.000000
vt 0.375000 0.500000
vt 0.250000 0.500000
vt 1.000000 0.000000
vt 0.500000 0.500000
vt 0.250000 0.750000
vt 0.000000 1.000000
vt 0.000000 0.750000
vt 0.250000 0.625000
vt 0.375000 0.625000
vt 0.367881 0.625000
vt 0.375000 0.626968
vt 0.367881 0.626968
vt 0.375000 0.625000
vt 0.375000 0.626968
vt 0.253833 0.750000
vt 0.250000 0.750000
vt 0.253833 0.750000
vt 0.250000 0.625000
vt 0.250000 0.626968
vt 0.250000 0.626968
vt 0.367881 0.625000
vt 0.253833 0.625000
vt 0.253833 0.626968
vt 0.253835 0.747981
vt 0.250000 0.750000
vt 0.253835 0.706314
vt 0.250000 0.747981
vt 0.250000 0.706314
vt 0.250000 0.747981
vt 0.375000 0.747981
vt 0.375000 0.750000
vt 0.375000 0.750000
vt 0.375000 0.706314
vt 0.375000 0.747981
vt 0.367880 0.747981
vt 0.367881 0.750000
vt 0.367880 0.706314
vt 0.279239 0.706314
vt 0.326213 0.747981
vt 0.279239 0.747981
vt 0.326213 0.706314
vt 0.326213 0.750000
vt 0.279237 0.750000
vt 0.375000 0.706314
vt 0.367880 0.747981
vt 0.326213 0.706314
vt 0.367880 0.706314
vt 0.367880 0.706314
vt 0.367881 0.750000
vt 0.326213 0.750000
vt 0.375000 0.625000
vt 0.367881 0.626968
vt 0.326214 0.626968
vt 0.279238 0.625000
vt 0.326214 0.625000
vt 0.279238 0.625000
vt 0.326214 0.625000
vt 0.326214 0.626968
vt 0.279238 0.626968
vt 0.250000 0.625000
vt 0.253833 0.626968
vt 0.253833 0.625000
vt 0.253835 0.747981
vt 0.250000 0.706314
vt 0.253835 0.706314
vt 0.279239 0.747981
vt 0.326213 0.747981
vt 0.253835 0.747981
vt 0.279237 0.750000
vt 0.279238 0.626968
vt 0.279238 0.654073
vt 0.279239 0.706314
vt 0.253834 0.654073
vt 0.253834 0.654073
vt 0.326214 0.654073
vt 0.253834 0.654073
vt 0.279238 0.654073
vt 0.250000 0.654073
vt 0.326214 0.654073
vt 0.367880 0.654073
vt 0.367880 0.654073
vt 0.367881 0.626968
vt 0.375000 0.654073
vt 0.250000 0.654073
vt 0.375000 0.654073
vt 0.279238 0.626968
vt 0.279238 0.654073
vt 0.253833 0.626968
vt 0.326214 0.654073
vt 0.367880 0.654073
vt 0.326214 0.626968
vt 0.326213 0.747981
vt 0.367880 0.747981
vt 0.326213 0.706314
vt 0.279239 0.706314
vt 0.279239 0.747981
vt 0.253835 0.706314
vt 1.000000 1.000000
vt 0.000000 0.500000
vt 0.000000 0.000000
vn -0.0000 1.0000 0.0000
vn 1.0000 -0.0000 0.0000
vn 0.0000 0.0000 -1.0000
vn -1.0000 0.0000 0.0000
vn 0.0000 -0.0000 1.0000
vn 0.0000 -1.0000 0.0000
usemtl Default_OBJ
s 1
f 9/15/7 10/16/7 11/17/7
f 12/18/7 13/19/7 14/20/7
f 15/21/7 16/22/7 17/23/7
f 18/24/7 19/25/7 15/21/7
f 20/26/7 21/27/7 22/28/7
f 23/29/7 20/26/7 22/28/7
f 10/16/7 12/18/7 24/30/7
f 24/30/7 20/26/7 23/29/7
f 16/22/7 23/29/7 17/23/7
f 19/25/7 24/30/7 16/22/7
f 25/31/7 26/32/7 27/33/7
f 28/34/8 29/35/8 26/32/8
f 30/36/9 31/37/9 32/38/9
f 33/39/10 34/40/10 35/41/10
f 36/42/11 28/34/11 25/31/11
f 37/43/12 35/41/12 38/44/12
f 39/45/12 40/46/12 30/36/12
f 41/47/12 42/48/12 39/45/12
f 42/48/10 31/37/10 40/46/10
f 43/49/10 44/50/10 42/48/10
f 45/51/8 46/52/8 47/53/8
f 48/54/8 49/55/8 45/51/8
f 50/56/7 47/53/7 51/57/7
f 52/58/7 45/51/7 50/56/7
f 53/59/7 54/60/7 55/61/7
f 56/62/7 50/56/7 54/60/7
f 55/61/7 57/63/7 58/64/7
f 54/60/7 51/57/7 57/63/7
f 59/65/12 60/66/12 49/55/12
f 61/67/11 62/68/11 63/69/11
f 49/55/12 64/70/12 46/52/12
f 60/66/12 65/71/12 64/70/12
f 66/72/12 67/73/12 29/35/12
f 36/42/12 68/74/12 67/73/12
f 69/75/11 70/76/11 71/77/11
f 72/78/11 25/31/11 70/76/11
f 46/52/9 51/57/9 47/53/9
f 64/70/9 57/63/9 51/57/9
f 71/77/7 73/79/7 74/80/7
f 70/76/7 27/33/7 73/79/7
f 75/81/7 76/82/7 34/40/7
f 77/83/7 74/80/7 76/82/7
f 33/39/11 77/83/11 75/81/11
f 37/43/11 71/77/11 77/83/11
f 44/50/7 32/38/7 31/37/7
f 78/84/7 58/64/7 32/38/7
f 79/85/7 78/84/7 44/50/7
f 80/86/7 55/61/7 78/84/7
f 61/67/12 81/87/12 82/88/12
f 81/87/9 83/89/9 39/45/9
f 82/88/12 84/90/12 65/71/12
f 81/87/12 30/36/12 84/90/12
f 72/78/12 85/91/12 68/74/12
f 69/75/12 38/44/12 85/91/12
f 65/71/9 58/64/9 57/63/9
f 84/90/9 32/38/9 58/64/9
f 86/92/12 41/47/12 87/93/12
f 86/92/9 88/94/9 89/95/9
f 90/96/12 87/93/12 61/67/12
f 68/74/12 86/92/12 90/96/12
f 91/97/7 53/59/7 80/86/7
f 76/82/7 92/98/7 91/97/7
f 93/99/7 80/86/7 79/85/7
f 93/99/7 76/82/7 91/97/7
f 94/100/7 52/58/7 56/62/7
f 73/79/7 95/101/7 94/100/7
f 92/98/7 56/62/7 53/59/7
f 74/80/7 94/100/7 92/98/7
f 96/102/12 61/67/12 63/69/12
f 68/74/11 97/103/11 67/73/11
f 98/104/12 63/69/12 59/65/12
f 29/35/12 96/102/12 98/104/12
f 89/95/12 43/49/12 41/47/12
f 38/44/12 99/105/12 89/95/12
f 99/105/10 79/85/10 43/49/10
f 35/41/10 93/99/10 99/105/10
f 100/106/8 59/65/8 48/54/8
f 100/106/8 29/35/8 98/104/8
f 95/101/7 48/54/7 52/58/7
f 27/33/7 100/106/7 95/101/7
f 101/107/12 88/94/12 102/108/12
f 38/44/11 101/107/11 85/91/11
f 89/95/10 103/109/10 38/44/10
f 85/91/8 102/108/8 86/92/8
f 97/103/12 104/110/12 105/111/12
f 90/96/10 106/112/10 68/74/10
f 67/73/8 105/111/8 96/102/8
f 96/102/9 104/110/9 90/96/9
f 62/68/12 107/113/12 108/114/12
f 60/66/9 107/113/9 82/88/9
f 63/69/8 108/114/8 60/66/8
f 82/88/10 109/115/10 61/67/10
f 110/116/12 83/89/12 111/117/12
f 39/45/10 112/118/10 41/47/10
f 87/93/8 111/117/8 81/87/8
f 41/47/11 110/116/11 87/93/11
f 10/16/7 19/25/7 11/17/7
f 11/17/7 113/119/7 9/15/7
f 113/119/7 13/19/7 9/15/7
f 14/20/7 20/26/7 12/18/7
f 12/18/7 9/15/7 13/19/7
f 114/120/7 115/121/7 17/23/7
f 115/121/7 15/21/7 17/23/7
f 15/21/7 19/25/7 16/22/7
f 18/24/7 11/17/7 19/25/7
f 20/26/7 14/20/7 21/27/7
f 22/28/7 114/120/7 23/29/7
f 114/120/7 17/23/7 23/29/7
f 10/16/7 9/15/7 12/18/7
f 24/30/7 12/18/7 20/26/7
f 16/22/7 24/30/7 23/29/7
f 19/25/7 10/16/7 24/30/7
f 25/31/7 28/34/7 26/32/7
f 28/34/8 66/72/8 29/35/8
f 30/36/9 40/46/9 31/37/9
f 33/39/10 75/81/10 34/40/10
f 36/42/11 66/72/11 28/34/11
f 37/43/12 33/39/12 35/41/12
f 39/45/12 42/48/12 40/46/12
f 41/47/12 43/49/12 42/48/12
f 42/48/10 44/50/10 31/37/10
f 43/49/10 79/85/10 44/50/10
f 45/51/8 49/55/8 46/52/8
f 48/54/8 59/65/8 49/55/8
f 50/56/7 45/51/7 47/53/7
f 52/58/7 48/54/7 45/51/7
f 53/59/7 56/62/7 54/60/7
f 56/62/7 52/58/7 50/56/7
f 55/61/7 54/60/7 57/63/7
f 54/60/7 50/56/7 51/57/7
f 59/65/12 63/69/12 60/66/12
f 61/67/11 109/115/11 62/68/11
f 49/55/12 60/66/12 64/70/12
f 60/66/12 82/88/12 65/71/12
f 66/72/12 36/42/12 67/73/12
f 36/42/12 72/78/12 68/74/12
f 69/75/11 72/78/11 70/76/11
f 72/78/11 36/42/11 25/31/11
f 46/52/9 64/70/9 51/57/9
f 64/70/9 65/71/9 57/63/9
f 71/77/7 70/76/7 73/79/7
f 70/76/7 25/31/7 27/33/7
f 75/81/7 77/83/7 76/82/7
f 77/83/7 71/77/7 74/80/7
f 33/39/11 37/43/11 77/83/11
f 37/43/11 69/75/11 71/77/11
f 44/50/7 78/84/7 32/38/7
f 78/84/7 55/61/7 58/64/7
f 79/85/7 80/86/7 78/84/7
f 80/86/7 53/59/7 55/61/7
f 61/67/12 87/93/12 81/87/12
f 81/87/9 111/117/9 83/89/9
f 82/88/12 81/87/12 84/90/12
f 81/87/12 39/45/12 30/36/12
f 72/78/12 69/75/12 85/91/12
f 69/75/12 37/43/12 38/44/12
f 65/71/9 84/90/9 58/64/9
f 84/90/9 30/36/9 32/38/9
f 86/92/12 89/95/12 41/47/12
f 86/92/9 102/108/9 88/94/9
f 90/96/12 86/92/12 87/93/12
f 68/74/12 85/91/12 86/92/12
f 91/97/7 92/98/7 53/59/7
f 76/82/7 74/80/7 92/98/7
f 93/99/7 91/97/7 80/86/7
f 93/99/7 34/40/7 76/82/7
f 94/100/7 95/101/7 52/58/7
f 73/79/7 27/33/7 95/101/7
f 92/98/7 94/100/7 56/62/7
f 74/80/7 73/79/7 94/100/7
f 96/102/12 90/96/12 61/67/12
f 68/74/11 106/112/11 97/103/11
f 98/104/12 96/102/12 63/69/12
f 29/35/12 67/73/12 96/102/12
f 89/95/12 99/105/12 43/49/12
f 38/44/12 35/41/12 99/105/12
f 99/105/10 93/99/10 79/85/10
f 35/41/10 34/40/10 93/99/10
f 100/106/8 98/104/8 59/65/8
f 100/106/8 26/32/8 29/35/8
f 95/101/7 100/106/7 48/54/7
f 27/33/7 26/32/7 100/106/7
f 101/107/12 103/109/12 88/94/12
f 38/44/11 103/109/11 101/107/11
f 89/95/10 88/94/10 103/109/10
f 85/91/8 101/107/8 102/108/8
f 97/103/12 106/112/12 104/110/12
f 90/96/10 104/110/10 106/112/10
f 67/73/8 97/103/8 105/111/8
f 96/102/9 105/111/9 104/110/9
f 62/68/12 109/115/12 107/113/12
f 60/66/9 108/114/9 107/113/9
f 63/69/8 62/68/8 108/114/8
f 82/88/10 107/113/10 109/115/10
f 110/116/12 112/118/12 83/89/12
f 39/45/10 83/89/10 112/118/10
f 87/93/8 110/116/8 111/117/8
f 41/47/11 112/118/11 110/116/11
o Cube.001
v -34.903976 -7.886277 25.790968
v 20.451633 -7.886279 25.790964
v -34.903976 20.600540 25.790968
v 20.451633 20.600538 25.790964
v -34.903976 -7.886277 19.681364
v 20.451633 -7.886279 19.681360
v -34.903976 20.600540 19.681364
v 20.451633 20.600538 19.681360
vt 0.625000 0.000000
vt 0.375000 0.250000
vt 0.375000 0.000000
vt 0.625000 0.250000
vt 0.375000 0.500000
vt 0.625000 0.500000
vt 0.375000 0.750000
vt 0.625000 0.750000
vt 0.375000 1.000000
vt 0.125000 0.750000
vt 0.125000 0.500000
vt 0.875000 0.500000
vt 0.625000 1.000000
vt 0.875000 0.750000
vn 0.0000 0.0000 1.0000
vn 0.0000 1.0000 0.0000
vn -0.0000 0.0000 -1.0000
vn -0.0000 -1.0000 0.0000
vn -1.0000 0.0000 0.0000
vn 1.0000 0.0000 0.0000
usemtl None
s off
f 117/122/13 118/123/13 116/124/13
f 119/125/14 122/126/14 118/123/14
f 123/127/15 120/128/15 122/126/15
f 121/129/16 116/130/16 120/128/16
f 122/126/17 116/131/17 118/132/17
f 119/133/18 121/129/18 123/127/18
f 117/122/13 119/125/13 118/123/13
f 119/125/14 123/127/14 122/126/14
f 123/127/15 121/129/15 120/128/15
f 121/129/16 117/134/16 116/130/16
f 122/126/17 120/128/17 116/131/17
f 119/133/18 117/135/18 121/129/18
o Icosphere
v -7.388322 3.132465 -5.641942
v -6.664715 3.685246 -5.116216
v -7.664710 3.685246 -4.791292
v -8.282748 3.685250 -5.641942
v -7.664710 3.685246 -6.492591
v -6.664715 3.685246 -6.167667
v -7.111934 4.579685 -4.791292
v -8.111929 4.579685 -5.116216
v -8.111929 4.579685 -6.167667
v -7.111934 4.579685 -6.492591
v -6.493896 4.579681 -5.641942
v -7.388322 5.132465 -5.641942
v -7.550777 3.281811 -5.141946
v -6.962999 3.281811 -5.332930
v -7.125453 3.606728 -4.832930
v -6.537674 3.606730 -5.641942
v -6.962999 3.281811 -5.950953
v -7.914052 3.281814 -5.641942
v -8.076511 3.606729 -5.141944
v -7.550777 3.281811 -6.141937
v -8.076511 3.606729 -6.141939
v -7.125453 3.606728 -6.450953
v -6.437264 4.132465 -5.332929
v -6.437264 4.132465 -5.950954
v -7.388322 4.132465 -4.641942
v -6.800536 4.132465 -4.832925
v -8.339379 4.132465 -5.332929
v -7.976108 4.132465 -4.832925
v -7.976108 4.132465 -6.450958
v -8.339379 4.132465 -5.950954
v -6.800536 4.132465 -6.450958
v -7.388322 4.132465 -6.641942
v -6.700132 4.658202 -5.141944
v -7.651191 4.658203 -4.832930
v -8.238970 4.658201 -5.641942
v -7.651191 4.658203 -6.450953
v -6.700132 4.658202 -6.141939
v -7.225866 4.983120 -5.141946
v -6.862592 4.983117 -5.641942
v -7.813644 4.983119 -5.332930
v -7.813644 4.983119 -5.950953
v -7.225866 4.983120 -6.141937
vt 0.181819 0.000000
vt 0.227273 0.078731
vt 0.136365 0.078731
vt 0.272728 0.157461
vt 0.318182 0.078731
vt 0.363637 0.157461
vt 0.909091 0.000000
vt 0.954545 0.078731
vt 0.863636 0.078731
vt 0.727273 0.000000
vt 0.772727 0.078731
vt 0.681818 0.078731
vt 0.545455 0.000000
vt 0.590909 0.078731
vt 0.500000 0.078731
vt 0.318182 0.236191
vt 0.090910 0.157461
vt 0.181819 0.157461
vt 0.136365 0.236191
vt 0.818182 0.157461
vt 0.909091 0.157461
vt 0.863636 0.236191
vt 0.636364 0.157461
vt 0.727273 0.157461
vt 0.681818 0.236191
vt 0.454546 0.157461
vt 0.545455 0.157461
vt 0.500000 0.236191
vt 0.227273 0.236191
vt 0.045455 0.236191
vt 0.772727 0.236191
vt 0.590909 0.236191
vt 0.409092 0.236191
vt 0.181819 0.314921
vt 0.272728 0.314921
vt 0.227273 0.393651
vt 0.000000 0.314921
vt 0.090910 0.314921
vt 0.045455 0.393651
vt 0.727273 0.314921
vt 0.818182 0.314921
vt 0.772727 0.393651
vt 0.545455 0.314921
vt 0.636364 0.314921
vt 0.590909 0.393651
vt 0.363637 0.314921
vt 0.454546 0.314921
vt 0.409092 0.393651
vt 0.500000 0.393651
vt 0.454546 0.472382
vt 0.681818 0.393651
vt 0.636364 0.472382
vt 0.863636 0.393651
vt 0.818182 0.472382
vt 0.909091 0.314921
vt 0.136365 0.393651
vt 0.090910 0.472382
vt 0.318182 0.393651
vt 0.272728 0.472382
vt 0.954545 0.236191
vt 1.000000 0.157461
vt 0.409092 0.078731
vt 0.363637 0.000000
vn 0.1024 -0.9435 0.3151
vn 0.7002 -0.6617 0.2680
vn -0.2680 -0.9435 0.1947
vn -0.2680 -0.9435 -0.1947
vn 0.1024 -0.9435 -0.3151
vn 0.9050 -0.3304 0.2680
vn 0.0247 -0.3304 0.9435
vn -0.8897 -0.3304 0.3151
vn -0.5746 -0.3304 -0.7488
vn 0.5346 -0.3304 -0.7779
vn 0.8026 -0.1256 0.5831
vn -0.3066 -0.1256 0.9435
vn -0.9921 -0.1256 0.0000
vn -0.3066 -0.1256 -0.9435
vn 0.8026 -0.1256 -0.5831
vn 0.4089 0.6617 0.6284
vn -0.4713 0.6617 0.5831
vn -0.7002 0.6617 -0.2680
vn 0.0385 0.6617 -0.7488
vn 0.7240 0.6617 -0.1947
vn 0.2680 0.9435 -0.1947
vn 0.4911 0.7947 -0.3568
vn 0.4089 0.6617 -0.6284
vn -0.1024 0.9435 -0.3151
vn -0.1876 0.7947 -0.5773
vn -0.4713 0.6617 -0.5831
vn -0.3313 0.9435 0.0000
vn -0.6071 0.7947 0.0000
vn -0.7002 0.6617 0.2680
vn -0.1024 0.9435 0.3151
vn -0.1876 0.7947 0.5773
vn 0.0385 0.6617 0.7488
vn 0.2680 0.9435 0.1947
vn 0.4911 0.7947 0.3568
vn 0.7240 0.6617 0.1947
vn 0.8897 0.3304 -0.3151
vn 0.7947 0.1876 -0.5773
vn 0.5746 0.3304 -0.7488
vn -0.0247 0.3304 -0.9435
vn -0.3035 0.1876 -0.9342
vn -0.5346 0.3304 -0.7779
vn -0.9050 0.3304 -0.2680
vn -0.9822 0.1876 0.0000
vn -0.9050 0.3304 0.2680
vn -0.5346 0.3304 0.7779
vn -0.3035 0.1876 0.9342
vn -0.0247 0.3304 0.9435
vn 0.5746 0.3304 0.7488
vn 0.7947 0.1876 0.5773
vn 0.8897 0.3304 0.3151
vn 0.3066 0.1256 -0.9435
vn 0.3035 -0.1876 -0.9342
vn 0.0247 -0.3304 -0.9435
vn -0.8026 0.1256 -0.5831
vn -0.7947 -0.1876 -0.5773
vn -0.8897 -0.3304 -0.3151
vn -0.8026 0.1256 0.5831
vn -0.7947 -0.1876 0.5773
vn -0.5746 -0.3304 0.7488
vn 0.3066 0.1256 0.9435
vn 0.3035 -0.1876 0.9342
vn 0.5346 -0.3304 0.7779
vn 0.9921 0.1256 0.0000
vn 0.9822 -0.1876 0.0000
vn 0.9050 -0.3304 -0.2680
vn 0.4713 -0.6617 -0.5831
vn 0.1876 -0.7947 -0.5773
vn -0.0385 -0.6617 -0.7488
vn -0.4089 -0.6617 -0.6284
vn -0.4911 -0.7947 -0.3568
vn -0.7240 -0.6617 -0.1947
vn -0.7240 -0.6617 0.1947
vn -0.4911 -0.7947 0.3568
vn -0.4089 -0.6617 0.6284
vn 0.7002 -0.6617 -0.2680
vn 0.6071 -0.7947 0.0000
vn 0.3313 -0.9435 0.0000
vn -0.0385 -0.6617 0.7488
vn 0.1876 -0.7947 0.5773
vn 0.4713 -0.6617 0.5831
usemtl None
s off
f 124/136/19 137/137/19 136/138/19
f 125/139/20 137/140/20 139/141/20
f 124/142/21 136/143/21 141/144/21
f 124/145/22 141/146/22 143/147/22
f 124/148/23 143/149/23 140/150/23
f 125/139/24 139/141/24 146/151/24
f 126/152/25 138/153/25 148/154/25
f 127/155/26 142/156/26 150/157/26
f 128/158/27 144/159/27 152/160/27
f 129/161/28 145/162/28 154/163/28
f 125/139/29 146/151/29 149/164/29
f 126/152/30 148/154/30 151/165/30
f 127/155/31 150/157/31 153/166/31
f 128/158/32 152/160/32 155/167/32
f 129/161/33 154/163/33 147/168/33
f 130/169/34 156/170/34 161/171/34
f 131/172/35 157/173/35 163/174/35
f 132/175/36 158/176/36 164/177/36
f 133/178/37 159/179/37 165/180/37
f 134/181/38 160/182/38 162/183/38
f 162/183/39 165/184/39 135/185/39
f 162/183/40 160/182/40 165/184/40
f 160/182/41 133/178/41 165/184/41
f 165/180/42 164/186/42 135/187/42
f 165/180/43 159/179/43 164/186/43
f 159/179/44 132/175/44 164/186/44
f 164/177/45 163/188/45 135/189/45
f 164/177/46 158/176/46 163/188/46
f 158/176/47 131/190/47 163/188/47
f 163/174/48 161/191/48 135/192/48
f 163/174/49 157/173/49 161/191/49
f 157/173/50 130/169/50 161/191/50
f 161/171/51 162/193/51 135/194/51
f 161/171/52 156/170/52 162/193/52
f 156/170/53 134/181/53 162/193/53
f 147/168/54 160/182/54 134/181/54
f 147/168/55 154/163/55 160/182/55
f 154/163/56 133/178/56 160/182/56
f 155/167/57 159/179/57 133/178/57
f 155/167/58 152/160/58 159/179/58
f 152/160/59 132/175/59 159/179/59
f 153/166/60 158/176/60 132/175/60
f 153/166/61 150/157/61 158/176/61
f 150/157/62 131/190/62 158/176/62
f 151/165/63 157/173/63 131/172/63
f 151/165/64 148/154/64 157/173/64
f 148/154/65 130/169/65 157/173/65
f 149/164/66 156/170/66 130/169/66
f 149/164/67 146/151/67 156/170/67
f 146/151/68 134/181/68 156/170/68
f 154/163/69 155/167/69 133/178/69
f 154/163/70 145/162/70 155/167/70
f 145/162/71 128/158/71 155/167/71
f 152/160/72 153/166/72 132/175/72
f 152/160/73 144/159/73 153/166/73
f 144/159/74 127/155/74 153/166/74
f 150/157/75 151/195/75 131/190/75
f 150/157/76 142/156/76 151/195/76
f 142/156/77 126/196/77 151/195/77
f 148/154/78 149/164/78 130/169/78
f 148/154/79 138/153/79 149/164/79
f 138/153/80 125/139/80 149/164/80
f 146/151/81 147/168/81 134/181/81
f 146/151/82 139/141/82 147/168/82
f 139/141/83 129/161/83 147/168/83
f 140/150/84 145/162/84 129/161/84
f 140/150/85 143/149/85 145/162/85
f 143/149/86 128/158/86 145/162/86
f 143/147/87 144/159/87 128/158/87
f 143/147/88 141/146/88 144/159/88
f 141/146/89 127/155/89 144/159/89
f 141/144/90 142/156/90 127/155/90
f 141/144/91 136/143/91 142/156/91
f 136/143/92 126/196/92 142/156/92
f 139/141/93 140/197/93 129/161/93
f 139/141/94 137/140/94 140/197/94
f 137/140/95 124/198/95 140/197/95
f 136/138/96 138/153/96 126/152/96
f 136/138/97 137/137/97 138/153/97
f 137/137/98 125/139/98 138/153/98
