# Blender v2.82 (sub 7) OBJ File: 'tank.blend'
# www.blender.org
mtllib tank.mtl
o Tank_Cube.001
v 2.000000 0.505885 1.005374
v 1.777894 -0.857483 1.005374
v -2.000000 0.505885 1.005374
v -1.756484 -0.857483 1.005374
v 2.000000 0.505885 0.002687
v -2.000000 0.505885 0.002687
v -0.817823 0.505885 0.002687
v 0.591089 0.505885 0.002687
v -0.817823 0.505885 0.505374
v 0.591089 0.505885 0.505374
v -0.564823 1.373831 0.505374
v -0.113367 0.505885 0.505374
v -0.564823 1.005885 0.505374
v -0.564823 1.005885 0.002687
v 0.591089 1.005885 0.505374
v 0.591089 1.005885 0.002687
v -0.113367 1.005885 0.002687
v -0.113367 1.005885 0.505374
v -0.564823 1.373831 0.002687
v -0.113367 1.505885 0.002687
v -0.113367 1.505885 0.505374
v 1.777894 -0.857483 0.505374
v -1.756484 -0.857483 0.505374
v 0.000000 -0.857483 0.505374
v 1.000000 -0.857483 0.505374
v -1.000000 -0.857483 0.505374
v -2.000000 -0.355632 0.505374
v -2.000000 -0.355632 0.002687
v 2.000000 -0.355632 0.002687
v 0.000000 -0.355632 0.505374
v 0.000000 -0.355632 0.002687
v -1.000000 -0.355632 0.002687
v 1.000000 -0.355632 0.002687
v 2.000000 -0.355632 0.505374
v 1.000000 -0.355632 0.505374
v -1.000000 -0.355632 0.505374
v 0.591089 0.505885 0.255374
v 0.591089 0.755885 0.002687
v 0.591089 0.755885 0.505374
v 0.591089 1.005885 0.255374
v 0.591089 0.755885 0.255374
v 0.591089 1.005885 0.130374
v 0.591089 0.880885 0.255374
v 0.591089 0.755885 0.130374
v 0.591089 0.880885 0.130374
v 3.513829 1.005885 0.130374
v 3.513829 1.005885 0.002687
v 3.513829 0.880885 0.002687
v 3.513829 0.755885 0.002687
v 3.513829 0.755885 0.130374
v 3.513829 0.880885 0.130374
v 2.000000 0.465848 0.836351
v -2.000000 0.465848 0.836351
v 2.000000 0.348596 1.005374
v -2.000000 0.348596 1.005374
v 0.000000 0.465848 0.836351
v 2.000000 0.467324 0.984057
v -2.000000 0.467324 0.984057
v 0.000000 0.505885 1.005374
v 0.000000 0.467324 0.984057
v -1.000000 0.505885 1.005374
v 2.000000 0.413498 1.080355
v -2.000000 0.413498 1.080355
v 1.000000 0.505885 1.005374
v 1.000000 0.467324 0.984057
v -1.000000 0.467324 0.984057
v 0.000000 0.413498 1.080355
v -1.000000 0.413498 1.080355
v 1.000000 0.413498 1.080355
v 2.000000 -0.254444 1.005374
v 1.946498 -0.555964 1.005374
v 1.946498 -0.606558 0.505374
v -2.000000 -0.254444 1.005374
v -1.924458 -0.555964 1.005374
v -2.000000 0.047076 1.005374
v -1.924458 -0.606558 0.505374
v 2.000000 0.505885 -1.000000
v 1.777894 -0.857483 -1.000000
v -2.000000 0.505885 -1.000000
v -1.756484 -0.857483 -1.000000
v -0.817823 0.505885 -0.500000
v 0.591089 0.505885 -0.500000
v -0.564823 1.373831 -0.500000
v -0.113367 0.505885 -0.500000
v -0.564823 1.005885 -0.500000
v 0.591089 1.005885 -0.500000
v -0.113367 1.005885 -0.500000
v -0.113367 1.505885 -0.500000
v 1.777894 -0.857483 -0.500000
v -1.756484 -0.857483 -0.500000
v 0.000000 -0.857483 -0.500000
v 1.000000 -0.857483 -0.500000
v -1.000000 -0.857483 -0.500000
v -2.000000 -0.355632 -0.500000
v 0.000000 -0.355632 -0.500000
v 2.000000 -0.355632 -0.500000
v 1.000000 -0.355632 -0.500000
v -1.000000 -0.355632 -0.500000
v 0.591089 0.505885 -0.250000
v 0.591089 0.755885 -0.500000
v 0.591089 1.005885 -0.250000
v 0.591089 0.755885 -0.250000
v 0.591089 1.005885 -0.125000
v 0.591089 0.880885 -0.250000
v 0.591089 0.755885 -0.125000
v 0.591089 0.880885 -0.125000
v 3.513829 1.005885 -0.125000
v 3.513829 0.755885 -0.125000
v 3.513829 0.880885 -0.125000
v 2.000000 0.465848 -0.830977
v -2.000000 0.465848 -0.830977
v 2.000000 0.348596 -1.000000
v -2.000000 0.348596 -1.000000
v 0.000000 0.465848 -0.830977
v 2.000000 0.467324 -0.978683
v -2.000000 0.467324 -0.978683
v 0.000000 0.505885 -1.000000
v 0.000000 0.467324 -0.978683
v -1.000000 0.505885 -1.000000
v 2.000000 0.413498 -1.074981
v -2.000000 0.413498 -1.074981
v 1.000000 0.505885 -1.000000
v 1.000000 0.467324 -0.978683
v -1.000000 0.467324 -0.978683
v 0.000000 0.413498 -1.074981
v -1.000000 0.413498 -1.074981
v 1.000000 0.413498 -1.074981
v 2.000000 -0.254444 -1.000000
v 1.946498 -0.555964 -1.000000
v 1.946498 -0.606558 -0.500000
v -2.000000 -0.254444 -1.000000
v -1.924458 -0.555964 -1.000000
v -2.000000 0.047076 -1.000000
v -1.924458 -0.606558 -0.500000
vt 0.500000 0.359375
vt 0.687500 0.500000
vt 0.500000 0.359375
vt 0.078125 0.054688
vt 0.000000 0.000000
vt 0.000000 0.000000
vt 0.312500 0.218750
vt 0.156250 0.109375
vt 0.156250 0.109375
vt 0.750000 0.625000
vt 0.750000 0.562500
vt 0.750000 0.562500
vt 0.312500 0.218750
vt 0.750000 0.625000
vt 0.750000 0.562500
vt 0.375000 0.312500
vt 0.687500 0.500000
vt 0.750000 0.625000
vt 0.375000 0.312500
vt 0.500000 0.359375
vt 0.312500 0.218750
vt 0.625000 0.500000
vt 0.156250 0.109375
vt 0.250000 0.562500
vt 0.187500 0.562500
vt 0.187500 0.562500
vt 0.625000 0.250000
vt 0.875000 0.625000
vt 0.375000 0.562500
vt 0.375000 0.562500
vt 0.312500 0.562500
vt 0.125000 0.562500
vt 0.125000 0.562500
vt 0.250000 0.562500
vt 0.187500 0.625000
vt 0.312500 0.625000
vt 0.250000 0.625000
vt 0.125000 0.625000
vt 0.125000 0.562500
vt 0.125000 0.500000
vt 0.312500 0.562500
vt 0.156250 0.484375
vt 0.078125 0.054688
vt 0.078125 0.054688
vt 0.156250 0.109375
vt 0.078125 0.054688
vt 0.000000 0.000000
vt 0.000000 0.000000
vt 0.078125 0.054688
vt 0.000000 0.000000
vt 0.078125 0.054688
vt 0.000000 0.000000
vt 0.625000 0.437500
vt 0.625000 0.375000
vt 0.687500 0.500000
vt 0.625000 0.625000
vt 0.593750 0.500000
vt 0.585938 0.445312
vt 0.437500 0.437500
vt 0.437500 0.500000
vt 0.250000 0.437500
vt 0.218750 0.453125
vt 0.546875 0.453125
vt 0.562500 0.500000
vt 0.500000 0.500000
vt 0.515625 0.359375
vt 0.531250 0.406250
vt 0.625000 0.312500
vt 0.578125 0.390625
vt 0.570312 0.335938
vt 0.562500 0.281250
vt 0.500000 0.312500
vt 0.375000 0.500000
vt 0.390625 0.500000
vt 0.406250 0.500000
vt 0.000000 0.000000
vt 0.375000 0.625000
vt 0.187500 0.468750
vt 0.375000 0.375000
vt 0.375000 0.562500
vt 0.500000 0.359375
vt 0.687500 0.500000
vt 0.500000 0.359375
vt 0.078125 0.054688
vt 0.312500 0.218750
vt 0.156250 0.109375
vt 0.156250 0.109375
vt 0.750000 0.562500
vt 0.750000 0.562500
vt 0.312500 0.218750
vt 0.750000 0.562500
vt 0.687500 0.500000
vt 0.500000 0.359375
vt 0.312500 0.218750
vt 0.625000 0.500000
vt 0.156250 0.109375
vt 0.250000 0.562500
vt 0.187500 0.562500
vt 0.187500 0.562500
vt 0.625000 0.250000
vt 0.375000 0.562500
vt 0.375000 0.562500
vt 0.312500 0.562500
vt 0.125000 0.562500
vt 0.125000 0.562500
vt 0.250000 0.562500
vt 0.125000 0.562500
vt 0.125000 0.500000
vt 0.312500 0.562500
vt 0.156250 0.484375
vt 0.078125 0.054688
vt 0.078125 0.054688
vt 0.156250 0.109375
vt 0.078125 0.054688
vt 0.078125 0.054688
vt 0.078125 0.054688
vt 0.625000 0.437500
vt 0.625000 0.375000
vt 0.687500 0.500000
vt 0.593750 0.500000
vt 0.585938 0.445312
vt 0.437500 0.437500
vt 0.437500 0.500000
vt 0.250000 0.437500
vt 0.218750 0.453125
vt 0.546875 0.453125
vt 0.562500 0.500000
vt 0.500000 0.500000
vt 0.515625 0.359375
vt 0.531250 0.406250
vt 0.625000 0.312500
vt 0.578125 0.390625
vt 0.570312 0.335938
vt 0.562500 0.281250
vt 0.500000 0.312500
vt 0.375000 0.500000
vt 0.390625 0.500000
vt 0.406250 0.500000
vt 0.187500 0.468750
vt 0.375000 0.375000
vt 0.375000 0.562500
vn 0.0000 0.0000 -1.0000
vn 0.0000 1.0000 0.0000
vn -1.0000 0.0000 0.0000
vn 1.0000 0.0000 0.0000
vn 0.0000 -1.0000 0.0000
vn 0.8923 -0.4515 0.0000
vn 0.2807 -0.9598 0.0000
vn 0.0000 0.0000 1.0000
vn 0.8725 0.4861 -0.0492
vn 0.0000 -0.6302 -0.7765
vn 0.0000 -0.8217 -0.5700
vn 0.0000 1.0000 -0.0100
vn 0.0000 0.8729 0.4879
vn -0.8717 0.4875 -0.0493
vn -0.9778 0.2085 -0.0211
vn 0.9688 0.2427 -0.0491
vn 0.8310 0.5563 0.0000
vn -0.8300 0.5577 0.0000
vn -0.9840 0.1746 -0.0353
vn 0.9571 0.2882 -0.0292
vn -0.8923 0.4515 0.0000
vn -0.2807 0.9598 0.0000
vn -0.8725 -0.4861 -0.0492
vn 0.0000 0.6302 -0.7765
vn 0.0000 0.8217 -0.5700
vn 0.0000 -1.0000 -0.0100
vn 0.0000 -0.8729 0.4879
vn 0.8717 -0.4875 -0.0493
vn 0.9778 -0.2085 -0.0211
vn -0.9688 -0.2427 -0.0491
vn -0.8310 -0.5563 0.0000
vn 0.8300 -0.5577 0.0000
vn 0.9840 -0.1746 -0.0353
vn -0.9571 -0.2882 -0.0292
usemtl Material.001
s off
f 12/1/1 13/2/1 18/3/1
f 44/4/2 49/5/2 38/6/2
f 15/7/3 40/8/3 43/9/3
f 14/10/4 11/11/4 13/12/4
f 40/8/5 15/7/5 18/3/5
f 18/3/1 15/7/1 39/13/1
f 7/14/6 13/12/6 9/15/6
f 20/16/7 11/17/7 19/18/7
f 18/3/3 20/16/3 17/19/3
f 18/3/1 11/17/1 21/20/1
f 12/1/5 10/21/5 1/22/5
f 37/23/5 1/22/5 10/21/5
f 24/24/8 36/25/8 26/26/8
f 3/27/5 6/28/5 7/14/5
f 3/27/5 7/14/5 9/15/5
f 72/29/8 34/30/8 35/31/8
f 36/25/8 27/32/8 76/33/8
f 30/34/2 32/35/2 36/25/2
f 34/30/2 33/36/2 35/31/2
f 35/31/2 31/37/2 30/34/2
f 36/25/2 28/38/2 27/32/2
f 26/26/2 23/39/2 4/40/2
f 25/41/8 30/34/8 24/24/8
f 4/40/9 76/33/9 74/42/9
f 43/9/3 42/43/3 45/44/3
f 37/23/3 41/45/3 44/4/3
f 10/21/3 41/45/3 37/23/3
f 42/43/1 51/46/1 45/44/1
f 41/45/3 45/44/3 44/4/3
f 51/46/3 47/47/3 48/48/3
f 50/49/3 48/48/3 49/5/3
f 16/50/5 46/51/5 42/43/5
f 45/44/1 50/49/1 44/4/1
f 8/52/5 1/22/5 37/23/5
f 12/1/5 64/53/5 59/54/5
f 9/55/5 12/1/5 3/27/5
f 5/56/5 1/22/5 8/52/5
f 64/53/10 62/57/10 69/58/10
f 56/59/11 54/60/11 55/61/11
f 75/62/1 54/60/1 4/40/1
f 65/63/12 57/64/12 52/65/12
f 66/66/12 60/67/12 56/59/12
f 61/68/10 67/69/10 68/70/10
f 68/70/13 60/67/13 66/66/13
f 63/71/13 66/66/13 58/72/13
f 3/27/10 68/70/10 63/71/10
f 69/58/13 57/64/13 65/63/13
f 67/69/13 65/63/13 60/67/13
f 59/54/10 69/58/10 67/69/10
f 72/29/14 2/73/14 71/74/14
f 71/74/15 34/30/15 72/29/15
f 70/75/3 54/60/3 34/30/3
f 54/60/3 52/65/3 34/30/3
f 5/76/3 34/30/3 52/65/3
f 52/65/3 57/64/3 1/22/3
f 34/30/3 5/76/3 29/77/3
f 74/42/16 27/32/16 73/78/16
f 73/78/4 27/32/4 75/62/4
f 75/62/4 27/32/4 55/61/4
f 27/32/4 53/79/4 55/61/4
f 3/27/4 58/72/4 53/79/4
f 53/79/4 28/38/4 6/28/4
f 12/1/1 9/55/1 13/2/1
f 44/4/2 50/49/2 49/5/2
f 43/9/3 41/45/3 39/13/3
f 39/13/3 15/7/3 43/9/3
f 14/10/4 19/18/4 11/11/4
f 18/3/5 17/19/5 40/8/5
f 17/19/5 16/50/5 42/43/5
f 42/43/5 40/8/5 17/19/5
f 39/13/1 10/21/1 12/1/1
f 12/1/1 18/3/1 39/13/1
f 7/14/6 14/10/6 13/12/6
f 20/16/7 21/20/7 11/17/7
f 18/3/3 21/20/3 20/16/3
f 18/3/1 13/2/1 11/17/1
f 24/24/8 30/34/8 36/25/8
f 35/31/8 25/41/8 22/80/8
f 22/80/8 72/29/8 35/31/8
f 76/33/8 23/39/8 36/25/8
f 23/39/8 26/26/8 36/25/8
f 30/34/2 31/37/2 32/35/2
f 34/30/2 29/77/2 33/36/2
f 35/31/2 33/36/2 31/37/2
f 36/25/2 32/35/2 28/38/2
f 4/40/2 2/73/2 24/24/2
f 2/73/2 22/80/2 25/41/2
f 25/41/2 24/24/2 2/73/2
f 24/24/2 26/26/2 4/40/2
f 25/41/8 35/31/8 30/34/8
f 4/40/17 23/39/17 76/33/17
f 43/9/3 40/8/3 42/43/3
f 38/6/3 8/52/3 44/4/3
f 8/52/3 37/23/3 44/4/3
f 10/21/3 39/13/3 41/45/3
f 42/43/1 46/51/1 51/46/1
f 41/45/3 43/9/3 45/44/3
f 51/46/3 46/51/3 47/47/3
f 50/49/3 51/46/3 48/48/3
f 16/50/5 47/47/5 46/51/5
f 45/44/1 51/46/1 50/49/1
f 12/1/5 1/22/5 64/53/5
f 59/54/5 61/68/5 12/1/5
f 61/68/5 3/27/5 12/1/5
f 64/53/10 1/22/10 62/57/10
f 55/61/11 53/79/11 56/59/11
f 56/59/11 52/65/11 54/60/11
f 71/74/1 2/73/1 70/75/1
f 2/73/1 4/40/1 54/60/1
f 70/75/1 2/73/1 54/60/1
f 4/40/1 74/42/1 75/62/1
f 74/42/1 73/78/1 75/62/1
f 75/62/1 55/61/1 54/60/1
f 52/65/12 56/59/12 65/63/12
f 56/59/12 60/67/12 65/63/12
f 56/59/12 53/79/12 66/66/12
f 53/79/12 58/72/12 66/66/12
f 61/68/10 59/54/10 67/69/10
f 68/70/13 67/69/13 60/67/13
f 63/71/13 68/70/13 66/66/13
f 3/27/10 61/68/10 68/70/10
f 69/58/13 62/57/13 57/64/13
f 67/69/13 69/58/13 65/63/13
f 59/54/10 64/53/10 69/58/10
f 72/29/18 22/80/18 2/73/18
f 71/74/19 70/75/19 34/30/19
f 1/22/3 5/76/3 52/65/3
f 57/64/3 62/57/3 1/22/3
f 74/42/20 76/33/20 27/32/20
f 27/32/4 28/38/4 53/79/4
f 53/79/4 6/28/4 3/27/4
f 3/27/4 63/71/4 58/72/4
usemtl Material
f 84/81/1 85/82/1 87/83/1
f 105/84/5 49/5/5 38/6/5
f 86/85/4 101/86/4 104/87/4
f 14/10/3 83/88/3 85/89/3
f 101/86/2 86/85/2 87/83/2
f 87/83/1 86/85/1 100/90/1
f 7/14/21 85/89/21 81/91/21
f 20/16/22 83/92/22 19/18/22
f 87/83/4 20/16/4 17/19/4
f 87/83/1 83/92/1 88/93/1
f 84/81/2 82/94/2 77/95/2
f 99/96/2 77/95/2 82/94/2
f 91/97/8 98/98/8 93/99/8
f 79/100/2 6/28/2 7/14/2
f 79/100/2 7/14/2 81/91/2
f 130/101/8 96/102/8 97/103/8
f 98/98/8 94/104/8 134/105/8
f 95/106/5 32/35/5 98/98/5
f 96/102/5 33/36/5 97/103/5
f 97/103/5 31/37/5 95/106/5
f 98/98/5 28/38/5 94/104/5
f 93/99/5 90/107/5 80/108/5
f 92/109/8 95/106/8 91/97/8
f 80/108/23 134/105/23 132/110/23
f 104/87/4 103/111/4 106/112/4
f 99/96/4 102/113/4 105/84/4
f 82/94/4 102/113/4 99/96/4
f 103/111/1 109/114/1 106/112/1
f 102/113/4 106/112/4 105/84/4
f 109/114/4 47/47/4 48/48/4
f 108/115/4 48/48/4 49/5/4
f 16/50/2 107/116/2 103/111/2
f 106/112/1 108/115/1 105/84/1
f 8/52/2 77/95/2 99/96/2
f 84/81/2 122/117/2 117/118/2
f 81/119/2 84/81/2 79/100/2
f 5/56/2 77/95/2 8/52/2
f 122/117/24 120/120/24 127/121/24
f 114/122/25 112/123/25 113/124/25
f 133/125/1 112/123/1 80/108/1
f 123/126/26 115/127/26 110/128/26
f 124/129/26 118/130/26 114/122/26
f 119/131/24 125/132/24 126/133/24
f 126/133/27 118/130/27 124/129/27
f 121/134/27 124/129/27 116/135/27
f 79/100/24 126/133/24 121/134/24
f 127/121/27 115/127/27 123/126/27
f 125/132/27 123/126/27 118/130/27
f 117/118/24 127/121/24 125/132/24
f 130/101/28 78/136/28 129/137/28
f 129/137/29 96/102/29 130/101/29
f 128/138/4 112/123/4 96/102/4
f 112/123/4 110/128/4 96/102/4
f 5/76/4 96/102/4 110/128/4
f 110/128/4 115/127/4 77/95/4
f 96/102/4 5/76/4 29/77/4
f 132/110/30 94/104/30 131/139/30
f 131/139/3 94/104/3 133/125/3
f 133/125/3 94/104/3 113/124/3
f 94/104/3 111/140/3 113/124/3
f 79/100/3 116/135/3 111/140/3
f 111/140/3 28/38/3 6/28/3
f 84/81/1 81/119/1 85/82/1
f 105/84/5 108/115/5 49/5/5
f 104/87/4 102/113/4 100/90/4
f 100/90/4 86/85/4 104/87/4
f 14/10/3 19/18/3 83/88/3
f 87/83/2 17/19/2 101/86/2
f 17/19/2 16/50/2 103/111/2
f 103/111/2 101/86/2 17/19/2
f 100/90/1 82/94/1 84/81/1
f 84/81/1 87/83/1 100/90/1
f 7/14/21 14/10/21 85/89/21
f 20/16/22 88/93/22 83/92/22
f 87/83/4 88/93/4 20/16/4
f 87/83/1 85/82/1 83/92/1
f 91/97/8 95/106/8 98/98/8
f 97/103/8 92/109/8 89/141/8
f 89/141/8 130/101/8 97/103/8
f 134/105/8 90/107/8 98/98/8
f 90/107/8 93/99/8 98/98/8
f 95/106/5 31/37/5 32/35/5
f 96/102/5 29/77/5 33/36/5
f 97/103/5 33/36/5 31/37/5
f 98/98/5 32/35/5 28/38/5
f 80/108/5 78/136/5 91/97/5
f 78/136/5 89/141/5 92/109/5
f 92/109/5 91/97/5 78/136/5
f 91/97/5 93/99/5 80/108/5
f 92/109/8 97/103/8 95/106/8
f 80/108/31 90/107/31 134/105/31
f 104/87/4 101/86/4 103/111/4
f 38/6/4 8/52/4 105/84/4
f 8/52/4 99/96/4 105/84/4
f 82/94/4 100/90/4 102/113/4
f 103/111/1 107/116/1 109/114/1
f 102/113/4 104/87/4 106/112/4
f 109/114/4 107/116/4 47/47/4
f 108/115/4 109/114/4 48/48/4
f 16/50/2 47/47/2 107/116/2
f 106/112/1 109/114/1 108/115/1
f 84/81/2 77/95/2 122/117/2
f 117/118/2 119/131/2 84/81/2
f 119/131/2 79/100/2 84/81/2
f 122/117/24 77/95/24 120/120/24
f 113/124/25 111/140/25 114/122/25
f 114/122/25 110/128/25 112/123/25
f 129/137/1 78/136/1 128/138/1
f 78/136/1 80/108/1 112/123/1
f 128/138/1 78/136/1 112/123/1
f 80/108/1 132/110/1 133/125/1
f 132/110/1 131/139/1 133/125/1
f 133/125/1 113/124/1 112/123/1
f 110/128/26 114/122/26 123/126/26
f 114/122/26 118/130/26 123/126/26
f 114/122/26 111/140/26 124/129/26
f 111/140/26 116/135/26 124/129/26
f 119/131/24 117/118/24 125/132/24
f 126/133/27 125/132/27 118/130/27
f 121/134/27 126/133/27 124/129/27
f 79/100/24 119/131/24 126/133/24
f 127/121/27 120/120/27 115/127/27
f 125/132/27 127/121/27 123/126/27
f 117/118/24 122/117/24 127/121/24
f 130/101/32 89/141/32 78/136/32
f 129/137/33 128/138/33 96/102/33
f 77/95/4 5/76/4 110/128/4
f 115/127/4 120/120/4 77/95/4
f 132/110/34 134/105/34 94/104/34
f 94/104/3 28/38/3 111/140/3
f 111/140/3 6/28/3 79/100/3
f 79/100/3 121/134/3 116/135/3
